# xmcd
#
# Track frame offsets:
#	150
#	11709
#	18235
#	29909
#	40124
#	51599
#
# Disc length: 838 seconds
#
# Revision: 0
# Processed by: cddbd v1.5.2PL0 Copyright (c) Steve Scherf et al.
# Submitted via: audiograbber 1.83.01
#
DISCID=4c034406
DTITLE=Yuppicide - American Oblivion
DYEAR=2012
DGENRE=Punk Rock
TTITLE0=Dead Inside
TTITLE1=Too Late 
TTITLE2=There's a Line 
TTITLE3=American Oblivion 
TTITLE4=Flies On... 
TTITLE5=Not With You
EXTD=
EXTT0=
EXTT1=
EXTT2=
EXTT3=
EXTT4=
EXTT5=
PLAYORDER=
